<?xml version="1.0" encoding="UTF-8"?>
<svg xmlns="http://www.w3.org/2000/svg" width="1038" height="194" viewBox="0 0 1038 194" fill="none">
  <path fill-rule="evenodd" clip-rule="evenodd" d="M877.209 72.7033V147.506H895.225V72.7033H877.209ZM878.077 54.3749C880.378 56.3195 883.026 57.2711 886.152 57.2711C889.277 57.2711 891.925 56.3195 894.226 54.3749C896.44 52.4717 897.482 49.9893 897.482 46.5967C897.482 43.2041 896.44 40.7217 894.226 38.8599C891.969 36.9153 889.234 35.9637 886.152 35.9637C883.07 35.9637 880.335 36.9567 878.077 38.8599C875.864 40.7217 874.822 43.1627 874.822 46.5967C874.822 50.0307 875.864 52.5131 878.077 54.3749ZM649.307 61.8634V147.506H668.407V61.8634H701.963V47.1758H615.751V61.8634H649.307ZM720.238 146.762C724.927 148.665 730.223 149.616 735.996 149.616C741.857 149.616 747.24 148.665 751.928 146.803C756.616 144.9 760.653 142.211 763.996 138.818C767.338 135.425 769.943 131.205 771.723 126.365C773.546 121.441 774.458 115.897 774.458 109.939C774.458 103.982 773.503 98.5203 771.593 93.6382C769.683 88.7976 767.034 84.6602 763.692 81.2676C760.349 77.9164 756.312 75.2271 751.624 73.3653C746.936 71.5035 741.553 70.5519 735.996 70.5519C730.44 70.5519 725.231 71.5035 720.542 73.4067C715.854 75.2685 711.774 77.9164 708.388 81.309C705.002 84.7016 702.267 88.8803 700.357 93.6796C698.403 98.5203 697.405 103.982 697.405 109.939C697.405 115.897 698.36 121.4 700.27 126.323C702.18 131.164 704.828 135.384 708.171 138.818C711.513 142.211 715.55 144.9 720.238 146.762ZM720.933 91.7351C724.493 86.9358 729.572 84.4947 735.996 84.4947C742.464 84.4947 747.5 86.9358 751.016 91.7351C754.315 96.2448 755.965 102.368 755.965 109.939C755.965 117.511 754.315 123.675 751.06 128.268C747.587 133.233 742.508 135.715 736.04 135.715C729.572 135.715 724.493 133.233 720.933 128.309C717.591 123.717 715.897 117.511 715.897 109.939C715.897 102.368 717.591 96.2448 720.933 91.7351ZM789.695 175.764V74.7305C791.214 74.3582 792.907 73.9445 794.73 73.6135C797.422 73.0756 800.33 72.5791 803.282 72.2068C806.277 71.793 809.359 71.462 812.442 71.2138C815.524 70.9656 818.476 70.8414 821.254 70.8414C827.809 70.8414 833.713 71.793 838.791 73.6548C843.827 75.4753 848.081 78.0818 851.554 81.433C854.983 84.7429 857.631 88.8389 859.455 93.6382C861.321 98.5202 862.233 104.064 862.233 110.105C862.233 116.145 861.452 121.441 859.932 126.282C858.456 130.998 856.242 135.094 853.421 138.487C850.599 141.797 847.083 144.403 842.915 146.265C838.748 148.127 833.799 149.079 828.286 149.079C825.204 149.079 822.296 148.789 819.604 148.21C816.913 147.63 814.308 146.803 811.834 145.769L807.71 144.031V175.806H789.695V175.764ZM821.053 84.6188C818.849 84.6195 816.775 84.7022 814.873 84.867C812.963 85.0325 811.4 85.2394 810.098 85.4463L807.667 85.86V130.874L809.012 131.702C810.749 132.777 813.006 133.646 815.697 134.35C818.345 135.012 821.08 135.384 823.772 135.384C832.888 135.384 843.74 131.081 843.74 110.684C843.74 103.071 841.874 96.8239 838.184 92.1074C834.28 87.1462 828.555 84.6225 821.053 84.6188ZM1038 128.351C1038 135.343 1035.35 140.473 1029.88 144.031C1024.2 147.755 1015.82 149.616 1005.01 149.616C997.802 149.616 991.768 149.037 987.08 147.879C983.824 147.093 981.263 146.389 979.397 145.769L976.749 144.941L972.494 146.513C970.324 147.217 967.719 147.879 964.811 148.458C960.86 149.244 956.389 149.616 951.614 149.616C944.321 149.616 938.027 148.582 932.818 146.555C927.695 144.528 923.441 141.756 920.185 138.322C916.886 134.888 914.455 130.75 912.936 125.992C911.373 121.152 910.592 115.814 910.592 110.105C910.592 104.395 911.547 99.4305 913.37 94.6312C915.237 89.8319 917.885 85.6532 921.357 82.1365C924.787 78.5783 929.084 75.7649 934.033 73.6549C938.982 71.5862 944.712 70.5519 951.137 70.5519C955.391 70.5519 959.341 70.9243 962.857 71.6276C965.549 72.1655 968.24 72.9516 970.845 73.8618L967.372 86.6875L967.37 86.6871L967.37 86.687C965.851 86.2734 964.333 85.8599 962.727 85.4877C959.819 84.8257 956.563 84.4947 953.047 84.4947C945.059 84.4947 938.982 86.9358 934.945 91.8178C931.038 96.493 929.084 102.658 929.084 110.105C929.084 117.924 930.908 124.172 934.597 128.64C938.417 133.315 944.972 135.674 954.002 135.674C957.084 135.674 960.383 135.425 963.769 134.888C966.026 134.557 968.153 134.06 970.15 133.481L976.792 131.164L982.175 132.819C985.387 133.853 988.643 134.722 991.899 135.384C996.326 136.294 1000.8 136.749 1005.18 136.749C1010.13 136.749 1013.47 136.294 1015.73 135.26C1017.38 134.515 1020.16 132.612 1020.16 127.978C1020.16 125.992 1019.29 123.137 1015.21 120.779C1012.74 119.29 1009.05 117.676 1003.97 115.856C1000.32 114.573 996.978 113.208 994.069 111.843C991.291 110.56 988.947 108.988 987.037 107.209C985.17 105.512 983.738 103.444 982.739 101.085C981.697 98.6858 981.176 95.7069 981.176 92.1902C981.176 85.6118 983.781 80.316 988.86 76.5097C994.199 72.5792 1001.71 70.5519 1011.26 70.5519C1016.21 70.5519 1020.98 70.9656 1025.45 71.7931C1028.71 72.3723 1031.49 73.0343 1033.79 73.6963L1030.92 85.9842C1028.93 85.4049 1026.84 84.8671 1024.67 84.412C1021.24 83.6673 1017.29 83.2535 1013.04 83.2535C1001.32 83.2535 998.844 88.0528 998.844 92.0661C998.844 93.3486 999.105 94.5485 999.582 95.5828C1000.1 96.7826 1001.1 97.8583 1002.49 98.8513C1003.58 99.596 1005.05 100.423 1006.88 101.251C1008.57 102.037 1010.78 102.906 1013.43 103.899C1018.51 105.678 1022.76 107.457 1026.06 109.195C1029.14 110.808 1031.62 112.587 1033.4 114.449C1035.05 116.187 1036.26 118.173 1036.91 120.283C1037.65 122.558 1038 125.289 1038 128.351ZM257.575 48.3758V148.706H276.718V104.975H320.649V90.5766H276.718V62.7737H326.119V48.3758H257.575ZM367.88 150.196C362.367 149.989 357.852 149.327 354.336 148.251C350.472 147.051 347.434 145.438 345.263 143.369C343.136 141.342 341.66 138.859 340.922 135.963C340.097 132.819 339.663 129.137 339.663 125.123V38.9426L357.678 36.1706V120.49C357.678 122.682 357.852 124.71 358.199 126.53C358.59 128.599 359.415 130.378 360.587 131.867C361.802 133.357 363.495 134.598 365.666 135.467C366.968 136.005 368.531 136.418 370.311 136.708L367.88 150.196ZM398.223 148.003C402.607 149.699 408.294 150.568 415.023 150.568L414.979 150.527C421.838 150.527 428.48 150.072 434.731 149.12C439.94 148.375 444.368 147.506 447.971 146.638V73.9445H429.956V135.632L427.438 135.963C425.919 136.17 424.182 136.336 422.142 136.501C420.145 136.667 418.235 136.749 416.455 136.749C409.814 136.749 405.125 134.639 402.521 130.461C400.176 126.737 399.048 121.069 399.048 113.125V73.9031H381.033V115.897C381.033 121.152 381.597 126.034 382.726 130.378C383.811 134.557 385.591 138.156 388.109 141.135C390.539 144.031 393.969 146.348 398.223 148.003ZM467.939 148.706V73.9032H485.954V148.706H467.939ZM476.838 58.5123C473.713 58.5123 471.065 57.5607 468.764 55.6162C466.55 53.7544 465.508 51.272 465.508 47.838C465.508 44.404 466.55 41.963 468.764 40.1012C471.021 38.198 473.756 37.205 476.838 37.205C479.92 37.205 482.612 38.1566 484.913 40.1012C487.127 41.963 488.168 44.4454 488.168 47.838C488.168 51.2306 487.127 53.713 484.913 55.5748C482.612 57.5194 479.964 58.471 476.838 58.471V58.5123ZM525.284 147.962C530.407 149.782 536.311 150.692 542.865 150.692V150.734C545.644 150.734 548.596 150.609 551.678 150.361C554.76 150.113 557.842 149.782 560.837 149.368C563.832 148.996 566.698 148.499 569.389 147.962C571.169 147.631 572.862 147.258 574.425 146.844V36.212L556.409 38.984V77.2958L552.285 75.5581C549.768 74.5237 547.25 73.6963 544.819 73.117C542.431 72.5792 539.697 72.2896 536.614 72.2896C531.101 72.2896 526.109 73.1584 521.855 74.9375C517.644 76.6752 514.041 79.2403 511.133 82.5502C508.181 85.9014 505.924 90.0801 504.317 94.9622C502.711 99.927 501.886 105.719 501.886 111.801C501.886 117.883 502.798 123.386 504.665 128.185C506.488 132.902 509.136 136.998 512.565 140.307C515.995 143.617 520.292 146.182 525.284 147.962ZM520.336 110.684C520.336 90.1629 531.188 85.86 540.304 85.86L540.348 85.9014C543.039 85.9014 545.774 86.2324 548.422 86.8944C551.113 87.5977 553.371 88.4666 555.107 89.5423L556.453 90.3697V135.674L554.022 136.087C552.763 136.294 551.2 136.501 549.247 136.667C547.337 136.832 545.253 136.915 543.039 136.915C535.529 136.915 529.756 134.35 525.892 129.343C522.202 124.586 520.336 118.297 520.336 110.684Z" fill="white"></path>
  <path d="M96.349 192.879C149.561 192.879 192.698 149.701 192.698 96.4394C192.698 43.1774 149.561 0 96.349 0C43.1369 0 0 43.1774 0 96.4394C0 149.701 43.1369 192.879 96.349 192.879Z" fill="#A2217F"></path>
  <path fill-rule="evenodd" clip-rule="evenodd" d="M56.6742 149.558C56.1379 156.745 56.7237 160.782 58.1383 160.782C59.5803 160.782 60.7955 156.699 62.9334 149.515C63.0974 148.964 63.2668 148.394 63.4422 147.807C64.1622 147.578 64.8804 147.334 65.5941 147.075C102.425 133.795 114.893 113.447 125.2 84.6734C146.346 83.7803 159.098 74.5385 150.257 74.5385C136.101 74.5385 127.059 72.5085 118.174 70.514C109.733 68.619 101.433 66.7559 89.026 66.6961C96.2898 49.6559 105.911 37.1832 122.512 37.1832C130.375 37.1832 130.049 32.0963 122.756 32.0963C99.3367 32.0963 86.9028 47.6131 78.4129 67.6774C61.5342 71.3008 59.3761 83.7026 63.5162 83.7026C64.0525 83.7026 64.9742 83.5765 66.3332 83.3905C67.9143 83.1741 70.0874 82.8767 72.9346 82.6026C71.0483 88.4141 69.3262 94.366 67.6313 100.245C63.3846 115.027 59.6734 130.734 57.5899 142.538C52.4951 144.786 47.8288 146.346 44.526 147.45C41.4854 148.466 39.6003 149.096 39.6003 149.521C39.6003 151.054 47.4902 151.423 56.6742 149.558ZM77.4503 100.75C77.8728 99.3872 78.2932 98.0239 78.7132 96.6622C80.2444 91.6971 81.7687 86.7543 83.3606 81.9612C84.8783 81.9157 86.4923 81.8862 88.2062 81.8775C94.3175 81.8775 99.6141 82.3823 102.996 82.8483C102.262 87.741 100.388 95.5461 96.7621 103.817C96.7621 103.817 91.2211 117.408 78.7132 128.475C75.0871 131.698 71.3388 134.416 71.3388 134.416C70.875 134.743 70.3753 135.112 69.8383 135.509C68.8411 136.247 67.7151 137.079 66.4512 137.912C67.6525 133.908 68.9235 129.551 70.2602 124.969C72.4935 117.313 74.9101 109.029 77.491 100.711L77.4503 100.75Z" fill="white"></path>
  <path d="M138.36 33.9214C123.041 39.4354 114.77 50.7352 108.904 64.3261C112.255 64.9472 115.377 65.6738 118.522 66.4057C122.258 67.2753 126.027 68.1525 130.253 68.8693C134.694 54.8513 138.727 42.8137 144.879 35.7853C145.327 35.2805 146.264 31.0867 138.36 33.9214Z" fill="white"></path>
</svg>
